<svg width="64" height="64" viewBox="0 0 64 64" fill="none" xmlns="http://www.w3.org/2000/svg">
<path fill-rule="evenodd" clip-rule="evenodd" d="M64 0H0V64H64V0ZM6 32C6 17.641 17.641 6 32 6C46.359 6 58 17.641 58 32C58 43.6406 50.3475 53.4886 39.8 56.802V48.25C39.8 45.913 38.828 43.83 37.2 42.4C43.297 41.181 47.6 37.684 47.6 32C47.6 29.124 46.466 26.475 44.568 24.322C44.732 23.815 45 22.64 45 20.625C45 19.39 44.917 17.874 44.35 16.4C44.35 16.4 40.642 16.426 37.145 19.738C35.531 19.268 33.804 19 32 19C30.196 19 28.469 19.268 26.855 19.738C23.358 16.426 19.65 16.4 19.65 16.4C19.086 17.874 19 19.39 19 20.625C19 22.494 19.333 23.641 19.533 24.208C17.575 26.381 16.4 29.072 16.4 32C16.4 37.684 20.703 41.181 26.8 42.4C25.43 43.604 24.59 45.286 24.322 47.174C23.742 47.454 22.9 47.6 21.925 47.6C21.142 47.6 19.621 47.23 18.204 45.023C17.632 44.129 16.4 42.4 14.775 42.4C14.7635 42.4 14.7515 42.4 14.7391 42.3999C14.4103 42.3992 13.7904 42.3979 13.8 42.871C13.8026 42.9908 13.8979 43.0498 14.0934 43.1707C14.2797 43.2859 14.5568 43.4573 14.931 43.791C15.573 44.366 16.171 45.307 16.4 46.3C16.777 47.93 18.288 51.175 21.925 51.175C23.225 51.175 24.2 50.85 24.2 50.85V56.802C13.6525 53.4886 6 43.6406 6 32Z" fill="black"/>
</svg>
